<svg width="20" height="20" viewBox="0 0 20 20" fill="none" xmlns="http://www.w3.org/2000/svg">
<g id="iOS_close">
<path id="SF Symbol" d="M2.44141 17.5078C2.29818 17.3711 2.20378 17.2083 2.1582 17.0195C2.11263 16.8307 2.11263 16.6419 2.1582 16.4531C2.21029 16.2643 2.30469 16.1048 2.44141 15.9746L8.4375 9.95898L2.44141 3.95312C2.30469 3.82292 2.21354 3.66341 2.16797 3.47461C2.1224 3.28581 2.1224 3.09701 2.16797 2.9082C2.21354 2.7194 2.30469 2.55664 2.44141 2.41992C2.58464 2.27669 2.75065 2.18229 2.93945 2.13672C3.12826 2.09115 3.31706 2.09115 3.50586 2.13672C3.69466 2.18229 3.85742 2.27344 3.99414 2.41016L10 8.41602L15.9961 2.41016C16.1328 2.26693 16.2956 2.17578 16.4844 2.13672C16.6732 2.09115 16.8587 2.09115 17.041 2.13672C17.2298 2.18229 17.3991 2.27669 17.5488 2.41992C17.6855 2.55664 17.7767 2.7194 17.8223 2.9082C17.8743 3.09701 17.8743 3.28581 17.8223 3.47461C17.7767 3.6569 17.6855 3.81966 17.5488 3.96289L11.5527 9.95898L17.5488 15.9648C17.6855 16.1081 17.7767 16.2741 17.8223 16.4629C17.8678 16.6452 17.8678 16.8307 17.8223 17.0195C17.7767 17.2083 17.6855 17.3711 17.5488 17.5078C17.4056 17.651 17.2396 17.7454 17.0508 17.791C16.862 17.8366 16.6732 17.8366 16.4844 17.791C16.2956 17.7454 16.1328 17.6543 15.9961 17.5176L10 11.5117L3.99414 17.5176C3.85742 17.6543 3.69466 17.7454 3.50586 17.791C3.32357 17.8366 3.13477 17.8366 2.93945 17.791C2.75065 17.7454 2.58464 17.651 2.44141 17.5078Z" fill="currentColor"/>
</g>
</svg>
