<svg width="16" height="16" viewBox="0 0 16 16" fill="none" xmlns="http://www.w3.org/2000/svg">
<path d="M7.28261 1.45359C7.57606 0.858991 8.42394 0.858992 8.71739 1.45359L10.165 4.38678C10.2815 4.62289 10.5068 4.78655 10.7674 4.82441L14.0043 5.29477C14.6605 5.39012 14.9225 6.1965 14.4477 6.65933L12.1054 8.9425C11.9169 9.12628 11.8308 9.39108 11.8753 9.6506L12.4283 12.8745C12.5404 13.528 11.8544 14.0264 11.2675 13.7178L8.37227 12.1957C8.13921 12.0732 7.86079 12.0732 7.62773 12.1957L4.73249 13.7178C4.14559 14.0264 3.45965 13.528 3.57174 12.8745L4.12468 9.6506C4.16919 9.39108 4.08315 9.12628 3.8946 8.94249L1.55231 6.65932C1.07749 6.1965 1.3395 5.39012 1.99568 5.29477L5.23265 4.82441C5.49321 4.78655 5.71847 4.62289 5.835 4.38678L7.28261 1.45359Z" fill="#FFB54D"/>
</svg>
